<svg xmlns="http://www.w3.org/2000/svg" id="Layer_1" viewBox="0 0 256 256" width="256" height="256"><style>.st0{fill:#fff}</style><g id="Group_183"><path id="Rectangle_94" d="M86.4 148.3h82.3v19.9H86.4z" class="st0"/><g id="Group_182"><path id="iconmonstr-favorite-2" d="M128.5 105.8c2.4-11.6 16.1-64.9 56-64.9 23.1 0 48.1 16.2 48.1 52.2 0 40.7-37.8 88.2-104.2 131.5C62.1 181.3 24.3 133.8 24.3 93.1 24.3 56.8 49 40.9 72 40.9c40.8 0 53.6 53.4 56.5 64.9zM3.4 93.1c0 42.3 31.9 98.7 125.1 156.2 93.1-57.5 125-113.9 125-156.2 0-83-100.5-94.1-125-39C104.1-.7 3.4 9.6 3.4 93.1z" class="st0"/><path id="Rectangle_95" d="M116.4 115.8h22.4v84.8h-22.4z" class="st0"/></g></g></svg>