<svg id="Layer_1" data-name="Layer 1" xmlns="http://www.w3.org/2000/svg" width="256" height="256" viewBox="0 0 256 256"><title>heart</title><g id="Group_183" data-name="Group 183"><rect id="Rectangle_94" data-name="Rectangle 94" x="86.4" y="148.3" width="82.3" height="19.95"/><g id="Group_182" data-name="Group 182"><path id="iconmonstr-favorite-2" d="M128.5,105.8c2.4-11.6,16.1-64.9,56-64.9,23.1,0,48.1,16.2,48.1,52.2,0,40.7-37.8,88.2-104.2,131.5C62.1,181.3,24.3,133.8,24.3,93.1,24.3,56.8,49,40.9,72,40.9,112.8,40.9,125.6,94.3,128.5,105.8ZM3.4,93.1c0,42.3,31.9,98.7,125.1,156.2,93.1-57.5,125-113.9,125-156.2,0-83-100.5-94.1-125-39C104.1-.7,3.4,9.6,3.4,93.1Z"/><rect id="Rectangle_95" data-name="Rectangle 95" x="116.4" y="115.8" width="22.4" height="84.79"/></g></g></svg>