<svg xmlns="http://www.w3.org/2000/svg" id="Layer_1" viewBox="0 0 256 256" width="256" height="256"><style>.st0{fill-rule:evenodd;clip-rule:evenodd;fill:#fff}</style><path d="M119.1 239.1h-82V136.6l92.2-82.2 92.4 82v102.7h-82v-20.4c0-.2.1-7.4 0-10.8-.2-4-2.7-7.5-6.5-9-2.4-.9-5.1-.9-7.5 0-3.8 1.3-6.4 4.7-6.7 8.7-.1 3.6 0 11 0 11v20.5h.1zm41.1-20.5h41.1l.2-72.9-72.1-63.8-71.9 64v72.7h41.1l.2-10.1c0-17 13.8-30.8 30.8-30.8 3.6 0 7.2.6 10.6 1.9a30.35 30.35 0 0 1 20 28.8v10.2zm-38.4-82.2H137c12 .2 13-10.1 23.2-10.1 5.6-.1 10.2 4.5 10.3 10.1v.2c0 4.4-2.5 8.3-6.4 10.2 3.9 2 6.4 5.9 6.4 10.3.1 5.6-4.3 10.2-9.9 10.3h-.4c-10.2 0-11.2-10.6-23.2-10.4h-15c-12-.2-13.1 10.4-23.4 10.4-5.6.1-10.2-4.3-10.3-9.9v-.4c.1-4.3 2.5-8.3 6.4-10.3-3.9-1.9-6.4-5.9-6.4-10.2-.1-5.6 4.5-10.2 10.1-10.3h.2c10.2 0 11.1 10.3 23.2 10.1m7.6-123.2l123.2 109.6-13.5 15.2-109.6-97.5L19.8 138 6.1 122.7 129.4 13.2z" class="st0"/></svg>