<svg xmlns="http://www.w3.org/2000/svg" width="256" height="256" viewBox="0 0 256 256"><path fill-rule="evenodd" d="M119.1 239.1h-82V136.6l92.2-82.2 92.4 82v102.7h-82v-20.4c0-.2.1-7.4 0-10.8a10.2 10.2 0 0 0-6.5-9 10.8 10.8 0 0 0-7.5 0 9.9 9.9 0 0 0-6.7 8.7c-.1 3.6 0 11 0 11v20.5zm41.1-20.5h41.1l.2-72.9-72.1-63.8-71.9 64v72.7h41.1l.2-10.1a30.8 30.8 0 0 1 30.8-30.8 29.6 29.6 0 0 1 10.6 1.9 30.3 30.3 0 0 1 20 28.8v10.2zm-38.4-82.2H137c12 .2 13-10.1 23.2-10.1a10.2 10.2 0 0 1 10.3 10.1v.2a11.2 11.2 0 0 1-6.4 10.2 11.7 11.7 0 0 1 6.4 10.3 10.1 10.1 0 0 1-9.9 10.3h-.4c-10.2 0-11.2-10.6-23.2-10.4h-15c-12-.2-13.1 10.4-23.4 10.4a10.1 10.1 0 0 1-10.3-9.9v-.4a11.9 11.9 0 0 1 6.4-10.3 11.4 11.4 0 0 1-6.4-10.2 10.2 10.2 0 0 1 10.1-10.3h.2c10.2 0 11.1 10.3 23.2 10.1m7.6-123.2l123.2 109.6-13.5 15.2-109.6-97.5L19.8 138 6.1 122.7 129.4 13.2z"/></svg>