<svg height="4in" viewBox="0 0 288 288" width="4in" xmlns="http://www.w3.org/2000/svg"><path d="m174.9 212.6a10.9 10.9 0 0 1 3.1-.8 31 31 0 0 0 7.9-1.7 137.9 137.9 0 0 0 13-7.2l7.8-5 .5-.6-8.3-7.2c-16.8-15.1-8.9-18.3-1.3-21.7s9.8-7.2 12.6-14.2 2.7-26.6-.3-30c-5.3-5.7-10.6 8.5-17.6 5.1-1.7-1-5.5-5.5-18.9-5.1-.2-.4 3.2-4.9.4-8.1-.9-1.2-2.5 1.3-2.8 2-11.2 15.3-27.2 23.3-13.3 42 29.1 37.7 8.9 38.5 4 52.7 4.3-.2 8.7-.2 13.2-.2z" fill="#fff"/><path d="m90.5 198.4c18.5 2.8 35.7 9.3 53.6 13.8l1.7.4h3a14.8 14.8 0 0 1 1.2-2.9c3-6.2 21.5-16.8 4.5-42.7a56.8 56.8 0 0 1 -9.4-37c.5-6 7.9-25.1 10.4-25.5 4.1 5.5 25.5 7 35.8-11.9 1.2-8.5-17.3-6.8-24.5-18.3-3.2-17-21.5-35.5-50.2-23.2-19.5 8.5-34.4 48.3-35.6 61.6a9.5 9.5 0 0 0 8.8 10 9.9 9.9 0 0 0 5.8-1.5c4.1-3.1 12.6-28.8 18.9-38.8-4.2 11.4-24.4 71.6-38.4 89.2-1.1 1.3-11.3 13-12.1 13.7a79.5 79.5 0 0 1 -10.3 10.6 238.7 238.7 0 0 1 36.8 2.5z" fill="#fff"/><path d="m51.9 209.7h451v69.81h-451z" fill="none"/><g fill="#fff"><path d="m62.8 232v2.1h-9v-14.3h2.6v12.2z"/><path d="m69.1 223.6a5.4 5.4 0 1 1 -5.5 5.3 5.4 5.4 0 0 1 5.5-5.3zm0 8.5a3.2 3.2 0 1 0 -3-3.2 3.1 3.1 0 0 0 3 3.2z"/><path d="m83.6 223.8h2.8l-6.4 14.9h-2.5l2.1-5.3-4.4-9.6h2.9l2.8 7z"/><path d="m98.1 223.8v10.3h-2.5v-1.6a4.4 4.4 0 0 1 -3.6 1.8c-3 0-5-2.4-5-5.4a5 5 0 0 1 5.1-5.3 4.3 4.3 0 0 1 3.5 1.7v-1.5zm-5.6 8.4a3 3 0 0 0 3.1-3.2 3.1 3.1 0 0 0 -3.1-3.4 3 3 0 0 0 -3 3.3 3.1 3.1 0 0 0 3 3.3z"/><path d="m100.9 234.1v-14.7h2.5v14.7z"/><path d="m108.8 226.1a2.8 2.8 0 0 1 2.8-2.5h.8v2.5a2.3 2.3 0 0 0 -1.1-.3c-.9 0-2.5.6-2.5 3.4v4.8h-2.5v-10.2h2.5z"/><path d="m123.8 232.3a5.9 5.9 0 0 1 -4.7 2c-3.7 0-5.9-2.4-5.9-5.3a5.4 5.4 0 0 1 5.7-5.4c2.7 0 5.4 1.7 5.4 5.7h-8.6c0 1.6 1.3 2.9 3.6 2.9a4.6 4.6 0 0 0 3.1-1.3zm-8-4.7h5.9a2.8 2.8 0 0 0 -2.8-2.1 3.2 3.2 0 0 0 -3.1 2.1z"/><path d="m127.3 230.8a2.2 2.2 0 0 0 2.2 1.5c.7 0 1.6-.3 1.6-1.1s-.5-.8-1.2-1.1l-1.5-.6c-2-.7-2.6-1.9-2.6-2.8s1.7-3.1 3.8-3.1a3.5 3.5 0 0 1 3.6 2.2l-2 .8a1.5 1.5 0 0 0 -1.6-1.1 1.2 1.2 0 0 0 -1.3 1.1c0 .6.5.9 1.1 1.1l1.5.5c2.2.7 2.6 2.1 2.6 3s-1.9 3.1-4 3.1a4.1 4.1 0 0 1 -4.2-2.7z"/><path d="m140.7 223.6a6.8 6.8 0 0 1 4 1.3l-1.2 1.8a4 4 0 0 0 -2.7-.9 3.1 3.1 0 1 0 0 6.2 4 4 0 0 0 2.7-.9l1.2 1.8a6.4 6.4 0 0 1 -4 1.4c-3.6 0-5.8-2.3-5.8-5.3s2.2-5.4 5.8-5.4z"/><path d="m156.1 234.1h-2.5v-1.8a3.5 3.5 0 0 1 -3.4 2c-2.5 0-3.8-1.9-3.8-4.8v-5.7h2.5v5.6c0 1.7.7 2.7 2 2.7s2.7-1 2.7-3.9v-4.4h2.5z"/><path d="m168.8 232.3a5.9 5.9 0 0 1 -4.7 2c-3.7 0-5.9-2.4-5.9-5.3a5.4 5.4 0 0 1 5.6-5.4c2.8 0 5.4 1.7 5.4 5.7h-8.5c0 1.6 1.3 2.9 3.5 2.9a4.2 4.2 0 0 0 3.1-1.3zm-8-4.7h5.9a2.8 2.8 0 0 0 -2.9-2.1 3 3 0 0 0 -3 2.1z"/><path d="m172.5 231a1.6 1.6 0 0 1 1.7 1.7 1.7 1.7 0 0 1 -3.4 0 1.6 1.6 0 0 1 1.7-1.7z"/><path d="m181.6 223.6a6.6 6.6 0 0 1 3.9 1.3l-1.1 1.8a4.1 4.1 0 0 0 -2.7-.9 3.1 3.1 0 1 0 0 6.2 4.1 4.1 0 0 0 2.7-.9l1.1 1.8a6.2 6.2 0 0 1 -3.9 1.4c-3.6 0-5.8-2.3-5.8-5.3s2.1-5.4 5.8-5.4z"/><path d="m192.1 223.6a5.4 5.4 0 1 1 -5.6 5.3 5.5 5.5 0 0 1 5.6-5.3zm0 8.5a3.2 3.2 0 1 0 -3.1-3.2 3.1 3.1 0 0 0 3.1 3.2z"/><path d="m206.5 228.4c0-1.8-.7-2.7-1.9-2.7s-2.2.8-2.3 3.1v5.3h-2.5v-10.3h2.5v1.7a3 3 0 0 1 3-1.9 3.2 3.2 0 0 1 3.2 1.9 3.5 3.5 0 0 1 3.4-1.9c2.7 0 3.8 1.8 3.8 4.8v5.7h-2.5v-5.7c0-1.8-.7-2.7-1.9-2.7s-2.2.8-2.3 3.1v5.3h-2.5z"/></g></svg>