<svg id="Layer_1" data-name="Layer 1" xmlns="http://www.w3.org/2000/svg" width="612" height="80" viewBox="0 0 612 80"><title>media</title><g id="Group_122" data-name="Group 122"><path id="iconmonstr-facebook-1" d="M100.8,28.9H94.1v9h6.7v27h11.3v-27h8.2l.8-9h-9V25.2c0-2.2.4-3,2.5-3h6.5V10.9h-8.6c-8.1,0-11.7,3.6-11.7,10.4Z" fill="#fff"/><path id="iconmonstr-twitter-1" d="M226.8,25.1a22.8,22.8,0,0,1-6.3,1.8,11.2,11.2,0,0,0,4.8-6.1,21.1,21.1,0,0,1-7,2.6,11.2,11.2,0,0,0-15.7-.4,10.9,10.9,0,0,0-3.2,10.5A31.2,31.2,0,0,1,176.6,22,11,11,0,0,0,180,36.8a12,12,0,0,1-5-1.4,11.1,11.1,0,0,0,8.9,11,12.1,12.1,0,0,1-5,.2,11.1,11.1,0,0,0,10.3,7.7,22.4,22.4,0,0,1-16.4,4.6,32,32,0,0,0,17,4.9c20.6,0,32.2-17.3,31.5-32.9a21.7,21.7,0,0,0,5.5-5.8Z" fill="#fff"/><path id="iconmonstr-instagram-11" d="M296.6,18.1h10.9c7.3.4,10.7,3.8,11.1,11.1.1,2.8.1,3.7.1,10.9s0,8.1-.1,10.9c-.4,7.3-3.8,10.7-11.1,11.1H285.7c-7.4-.4-10.8-3.8-11.1-11.1-.1-2.8-.2-3.7-.2-10.9s.1-8.1.2-10.9c.3-7.3,3.7-10.7,11.1-11.1Zm0-4.9c-7.4,0-8.3,0-11.2.2-9.8.4-15.2,5.8-15.7,15.7-.1,2.8-.1,3.8-.1,11.1s0,8.3.1,11.1c.5,9.8,5.9,15.3,15.7,15.7,2.9.2,3.8.2,11.2.2s8.2,0,11.1-.2c9.8-.4,15.3-5.9,15.7-15.7.1-2.8.2-3.8.2-11.1s-.1-8.2-.2-11.1c-.4-9.8-5.9-15.3-15.7-15.7C304.8,13.2,303.9,13.2,296.6,13.2Zm0,13.1a13.9,13.9,0,1,0,13.8,13.9,13.9,13.9,0,0,0-13.8-13.9Zm0,22.9a9,9,0,1,1,9-9h0A9,9,0,0,1,296.6,49.2ZM311,22.5a3.3,3.3,0,0,0-3.3,3.3A3.2,3.2,0,0,0,311,29a3.2,3.2,0,0,0,3.2-3.2h0A3.2,3.2,0,0,0,311,22.5Z" fill="#fff"/><path id="iconmonstr-youtube-6" d="M410.5,20.4a327,327,0,0,0-34.3,0c-8.8.6-9.8,5.9-9.9,19.8s1.1,19.2,9.9,19.8a327,327,0,0,0,34.3,0c8.7-.6,9.8-5.9,9.8-19.8S419.2,21,410.5,20.4ZM386.6,49.2v-18l18,9Z" fill="#fff"/><path id="iconmonstr-pinterest-1" d="M490.1,13.2a27,27,0,0,0-9.9,52.1,28.4,28.4,0,0,1,.1-7.7l3.2-13.4a11.4,11.4,0,0,1-.8-4c0-3.8,2.2-6.6,4.9-6.6A3.4,3.4,0,0,1,491,37v.4c0,2.3-1.5,5.8-2.2,9a3.9,3.9,0,0,0,2.8,4.8h1.2c4.8,0,8.5-5.1,8.5-12.4a10.8,10.8,0,0,0-10.4-11H490a11.8,11.8,0,0,0-12.2,11.2v.5a10.4,10.4,0,0,0,2,6.2.8.8,0,0,1,.2.8l-.8,3c-.1.5-.4.6-.9.4-3.3-1.6-5.4-6.5-5.4-10.5,0-8.5,6.1-16.3,17.8-16.3,9.4,0,16.6,6.7,16.6,15.6s-5.8,16.8-14,16.8a7.3,7.3,0,0,1-6.2-3.1l-1.6,6.4a35.7,35.7,0,0,1-3.4,7.1,27,27,0,1,0,8-52.8Z" fill="#fff" fill-rule="evenodd"/></g></svg>