<svg height="300" viewBox="0 0 300 300" width="300" xmlns="http://www.w3.org/2000/svg"><g fill="#f57f20"><path d="m215.8 286.3a19.1 19.1 0 0 1 4.7-1.2 45.1 45.1 0 0 0 12.5-2.7 224.1 224.1 0 0 0 20.4-11.2l12.2-8 .9-.9-13.1-11.3c-26.4-23.7-13.9-28.8-2.1-34.1s15.5-11.3 19.9-22.3 4.2-41.8-.6-47.1c-8.3-8.9-16.6 13.3-27.6 8-2.6-1.5-8.6-8.6-29.6-8-.3-.6 5-7.7.6-12.8-1.5-1.8-3.9 2.1-4.5 3.3-17.5 24-42.7 36.5-20.7 65.8 45.6 59.4 13.9 60.5 6.2 82.8 6.8-.3 13.6-.3 20.8-.3z"/><path d="m83.2 264c29 4.5 56 14.6 84.2 21.7.9.3 1.8.3 2.7.6h4.7a35.2 35.2 0 0 1 1.8-4.5c4.7-9.7 33.8-26.4 7.1-67-11.3-17.2-16.9-37.7-14.8-58.1.9-9.5 12.4-39.5 16.3-40.1 6.5 8.6 40 11 56.4-18.7 1.7-13.3-27.3-10.6-38.6-28.7-5-26.7-33.8-55.8-78.9-36.5-30.6 13.3-54 75.9-55.8 96.7-.9 12.1 12.8 20.2 22.9 13.3 6.5-4.7 19.8-45.1 29.6-60.8-6.5 17.8-38.2 112.4-60.2 140-1.8 2.1-17.8 20.5-19 21.7a141.8 141.8 0 0 1 -16.3 16.6c19.3 0 38.6.9 57.9 3.8z"/></g></svg>