<svg id="Layer_1" data-name="Layer 1" xmlns="http://www.w3.org/2000/svg" width="256" height="256" viewBox="0 0 256 256"><title>pill</title><path id="iconmonstr-medical-11" d="M183.2,109a66.1,66.1,0,1,1-66,66.1A66.1,66.1,0,0,1,183.2,109ZM103.9,209.3l-3.7,6.4a50.8,50.8,0,1,1-88-50.8L82,42.9a50.9,50.9,0,0,1,90.4,46.4,83.6,83.6,0,0,0-28,8.6l8-14.3A30.5,30.5,0,0,0,99.6,53.1L70.5,104.6l40.4,23.3a84.4,84.4,0,0,0-9.1,18.3l-41.5-24L29.8,175.1a30.5,30.5,0,0,0,52.8,30.5l14.5-25A86,86,0,0,0,103.9,209.3Zm110.7-67.6L170,218.9a45.8,45.8,0,0,0,44.6-77.2ZM197,131.5a45.7,45.7,0,0,0-44.6,77.3Z" fill-rule="evenodd"/></svg>