<svg xmlns="http://www.w3.org/2000/svg" id="Layer_1" viewBox="0 0 256 256" width="256" height="256"><style>.st0{fill-rule:evenodd;clip-rule:evenodd;fill:#fff}</style><path id="iconmonstr-medical-11" d="M183.2 109c36.5-.1 66.1 29.5 66.2 66 .1 36.5-29.5 66.1-66 66.2-36.5.1-66.1-29.5-66.2-66v-.1c0-36.5 29.5-66 66-66.1zm-79.3 100.3l-3.7 6.4c-14 24.3-45.1 32.6-69.4 18.6-24.3-14-32.6-45.1-18.6-69.4L82 42.9c14.3-24.2 45.6-32.2 69.7-17.8 22.1 13.1 31 40.7 20.7 64.2-9.8 1.2-19.2 4.1-28 8.6l8-14.3c8-14.8 2.5-33.3-12.3-41.3-14.2-7.7-32-2.9-40.5 10.8l-29.1 51.5 40.4 23.3c-3.8 5.7-6.8 11.9-9.1 18.3l-41.5-24-30.5 52.9c-8 14.8-2.5 33.3 12.3 41.3 14.2 7.7 32 2.9 40.5-10.8l14.5-25c.6 9.9 2.9 19.6 6.8 28.7zm110.7-67.6L170 218.9c24.2 7.3 49.8-6.4 57.1-30.7 5-16.6.1-34.6-12.5-46.5zM197 131.5c-24.1-7.6-49.7 5.8-57.3 29.8-5.3 17-.4 35.5 12.7 47.5l44.6-77.3z" class="st0"/></svg>